<svg t="1683881431863" class="icon" viewBox="0 0 1032 1024" version="1.1"
  xmlns="http://www.w3.org/2000/svg" p-id="15115" width="200" height="200">
  <path
    d="M266.246918 266.246918m81.910488 0l327.706806 0q81.910488 0 81.910488 81.910488l0 327.706806q0 81.910488-81.910488 81.910488l-327.706806 0q-81.910488 0-81.910488-81.910488l0-327.706806q0-81.910488 81.910488-81.910488Z"
    fill="#000000" p-id="15116"></path>
  <path
    d="M512 1024C229.236953 1024 0 794.784665 0 512 0 229.236953 229.236953 0 512 0c282.763047 0 512 229.236953 512 512 0 282.763047-229.215335 512-512 512z m0-68.247931c245.082925 0 443.752069-198.669144 443.752069-443.752069 0-245.061307-198.669144-443.730451-443.752069-443.730451-245.061307 0-443.730451 198.669144-443.730451 443.730451 0 245.082925 198.669144 443.752069 443.730451 443.752069z"
    fill="#000000" opacity=".4" p-id="15117"></path>
  <path
    d="M512 0c282.763047 0 512 229.236953 512 512 0 27.887181-2.226651 55.255531-6.507009 81.932106H948.164161c4.972133-26.546867 7.566289-53.936835 7.56629-81.932106 0-245.061307-198.669144-443.730451-443.752069-443.730451V0z"
    fill="#000000" p-id="15118"></path>
</svg>